<svg width="24" height="24" viewBox="0 0 24 24" fill="none" xmlns="http://www.w3.org/2000/svg">
<path fill-rule="evenodd" clip-rule="evenodd" d="M12 4.75C7.99594 4.75 4.75 7.99594 4.75 12C4.75 16.0041 7.99594 19.25 12 19.25C16.0041 19.25 19.25 16.0041 19.25 12C19.25 7.99594 16.0041 4.75 12 4.75ZM3.25 12C3.25 7.16751 7.16751 3.25 12 3.25C16.8325 3.25 20.75 7.16751 20.75 12C20.75 16.8325 16.8325 20.75 12 20.75C7.16751 20.75 3.25 16.8325 3.25 12ZM11.25 8.8C11.25 8.38579 11.5858 8.05 12 8.05H12.008C12.4222 8.05 12.758 8.38579 12.758 8.8C12.758 9.21421 12.4222 9.55 12.008 9.55H12C11.5858 9.55 11.25 9.21421 11.25 8.8ZM12 11.25C12.4142 11.25 12.75 11.5858 12.75 12V15.2C12.75 15.6142 12.4142 15.95 12 15.95C11.5858 15.95 11.25 15.6142 11.25 15.2V12C11.25 11.5858 11.5858 11.25 12 11.25Z" fill="#8D96B5"/>
</svg>
